<svg width="324" height="470" viewBox="0 0 324 470" fill="none" xmlns="http://www.w3.org/2000/svg">
<path d="M306.949 67.937H17.0513L34.7903 17.575C38.3133 7.57198 47.7653 0.880981 58.3703 0.880981H265.63C276.235 0.880981 285.687 7.57198 289.21 17.575L306.949 67.937Z" fill="#A56021"/>
<path d="M98.3703 0.880981H58.3703C47.7653 0.880981 38.3133 7.57198 34.7903 17.575L17.0513 67.937H57.0513L74.7903 17.575C78.3133 7.57198 87.7643 0.880981 98.3703 0.880981Z" fill="#8C4C17"/>
<path d="M241.638 469.119H82.3618C66.8438 469.119 53.8878 457.285 52.4848 441.831L22.0278 106.314H301.971L271.514 441.831C270.112 457.285 257.155 469.119 241.638 469.119Z" fill="#FFEACF"/>
<path d="M92.4848 441.831L62.0278 106.313H22.0278L52.4848 441.831C53.8878 457.285 66.8438 469.119 82.3618 469.119H122.362C106.845 469.119 93.8878 457.285 92.4848 441.831Z" fill="#FFD59A"/>
<path d="M311.46 106.314H12.54C5.91304 106.314 0.540039 100.941 0.540039 94.314V69.749C0.540039 63.122 5.91304 57.749 12.54 57.749H311.46C318.087 57.749 323.46 63.122 323.46 69.749V94.314C323.46 100.941 318.088 106.314 311.46 106.314Z" fill="#A56021"/>
<path d="M42.7782 356.936H281.223C285.266 356.936 288.645 353.792 289.021 349.679L300.666 222.194C301.095 217.503 297.481 213.451 292.868 213.451H31.1332C26.5202 213.451 22.9072 217.503 23.3352 222.194L34.9802 349.679C35.3562 353.791 38.7342 356.936 42.7782 356.936Z" fill="#A56021"/>
<path d="M167.652 355.37C206.695 355.37 238.345 323.72 238.345 284.677C238.345 245.634 206.695 213.984 167.652 213.984C128.609 213.984 96.959 245.634 96.959 284.677C96.959 323.72 128.609 355.37 167.652 355.37Z" fill="#DB9C2E"/>
<path d="M40.54 89.749C40.54 83.122 45.913 77.749 52.54 77.749H323.46V69.749C323.46 63.122 318.087 57.749 311.46 57.749H12.54C5.91304 57.749 0.540039 63.122 0.540039 69.749V94.314C0.540039 100.941 5.91304 106.314 12.54 106.314H40.54V89.749Z" fill="#8C4C17"/>
<path d="M270.383 340.834C270.2 340.834 270.016 340.826 269.83 340.809C266.53 340.508 264.1 337.588 264.4 334.288L273.595 233.621C273.897 230.321 276.806 227.888 280.116 228.192C283.416 228.493 285.846 231.413 285.546 234.713L276.351 335.38C276.066 338.493 273.45 340.834 270.383 340.834Z" fill="#BF6C0D"/>
<path d="M283.426 49.9999C280.378 49.9999 277.769 47.6869 277.462 44.5899C276.719 37.0839 273.97 31.6319 269.058 27.9229C258.362 19.8449 240.698 22.7509 240.523 22.7829C237.257 23.3699 234.14 21.2049 233.553 17.9439C232.964 14.6829 235.131 11.5619 238.392 10.9739C239.32 10.8069 261.274 7.00692 276.29 18.3469C283.916 24.1059 288.328 32.5379 289.403 43.4079C289.729 46.7059 287.321 49.6429 284.023 49.9699C283.823 49.9909 283.623 49.9999 283.426 49.9999Z" fill="#BF6C0D"/>
<path d="M273.57 198.957C273.354 198.957 273.137 198.946 272.919 198.922C269.625 198.567 267.242 195.608 267.597 192.313L274.734 126.115C275.09 122.819 278.059 120.438 281.343 120.793C284.637 121.148 287.02 124.107 286.665 127.402L279.528 193.6C279.196 196.675 276.595 198.957 273.57 198.957Z" fill="#FCF9DE"/>
<path d="M227.169 448.69C226.823 448.69 226.477 448.686 226.123 448.677C222.81 448.593 220.193 445.84 220.277 442.527C220.361 439.214 223.135 436.595 226.427 436.681C233.576 436.862 238.572 434.374 241.583 429.07C244.077 424.68 244.315 419.96 244.318 419.913C244.323 419.804 244.332 419.658 244.342 419.549L248.028 382.679C248.358 379.382 251.292 376.974 254.595 377.306C257.893 377.636 260.298 380.576 259.969 383.873L256.301 420.558C255.89 430.508 249.286 448.69 227.169 448.69Z" fill="#FCF9DE"/>
<path d="M117.938 407.096C126.222 407.096 132.938 400.38 132.938 392.096C132.938 383.812 126.222 377.096 117.938 377.096C109.654 377.096 102.938 383.812 102.938 392.096C102.938 400.38 109.654 407.096 117.938 407.096Z" fill="#FFD59A"/>
<path d="M150.207 446.359C158.491 446.359 165.207 439.643 165.207 431.359C165.207 423.075 158.491 416.359 150.207 416.359C141.923 416.359 135.207 423.075 135.207 431.359C135.207 439.643 141.923 446.359 150.207 446.359Z" fill="#FFD59A"/>
<path d="M96.96 45.114C105.244 45.114 111.96 38.3983 111.96 30.114C111.96 21.8297 105.244 15.114 96.96 15.114C88.6757 15.114 81.96 21.8297 81.96 30.114C81.96 38.3983 88.6757 45.114 96.96 45.114Z" fill="#8C4C17"/>
<path d="M84.9802 349.679L73.3353 222.194C72.9073 217.503 76.5202 213.451 81.1332 213.451H31.1332C26.5202 213.451 22.9072 217.503 23.3352 222.194L34.9802 349.679C35.3552 353.792 38.7342 356.936 42.7782 356.936H92.7782C88.7342 356.936 85.3552 353.792 84.9802 349.679Z" fill="#8C4C17"/>
</svg>
